<svg width="57" height="67" viewBox="0 0 57 67" fill="none" xmlns="http://www.w3.org/2000/svg">
<path d="M52.2996 39.4483C51.3128 48.5517 57.0001 66.5 57.0001 66.5C30.5181 62.3871 23.0898 63.4864 3.09338 66.4458L2.72699 66.5C2.72699 66.5 1.97358 52.1379 0.98679 45.7931L7.62939e-06 17.931C7.62939e-06 17.931 4.44053 34.7586 9.37445 40.8276C14.3084 46.8966 17.7621 48.5517 17.7621 48.5517V34.7586C17.7621 32.5517 17.7621 28.9655 19.489 17.931C21.2159 6.89655 27.3833 0 27.3833 0C27.3833 0 29.6035 22.069 31.5771 31.4483C33.5507 40.8276 41.9383 52.4138 41.9383 52.4138C41.9383 52.4138 41.1982 50.9163 43.4185 43.0345C45.6388 35.1527 56 20.9655 56 20.9655C56 20.9655 53.2864 30.3448 52.2996 39.4483Z" fill="#456D36"/>
<path d="M52.2996 39.4483C51.3128 48.5517 57.0001 66.5 57.0001 66.5C30.5181 62.3871 23.0898 63.4864 3.09338 66.4458L2.72699 66.5C2.72699 66.5 1.97358 52.1379 0.98679 45.7931L7.62939e-06 17.931C7.62939e-06 17.931 4.44053 34.7586 9.37445 40.8276C14.3084 46.8966 17.7621 48.5517 17.7621 48.5517V34.7586C17.7621 32.5517 17.7621 28.9655 19.489 17.931C21.2159 6.89655 27.3833 0 27.3833 0C27.3833 0 29.6035 22.069 31.5771 31.4483C33.5507 40.8276 41.9383 52.4138 41.9383 52.4138C41.9383 52.4138 41.1982 50.9163 43.4185 43.0345C45.6388 35.1527 56 20.9655 56 20.9655C56 20.9655 53.2864 30.3448 52.2996 39.4483Z" fill="#456D36"/>
<path d="M52.2996 39.4483C51.3128 48.5517 57.0001 66.5 57.0001 66.5C30.5181 62.3871 23.0898 63.4864 3.09338 66.4458L2.72699 66.5C2.72699 66.5 1.97358 52.1379 0.98679 45.7931L7.62939e-06 17.931C7.62939e-06 17.931 4.44053 34.7586 9.37445 40.8276C14.3084 46.8966 17.7621 48.5517 17.7621 48.5517V34.7586C17.7621 32.5517 17.7621 28.9655 19.489 17.931C21.2159 6.89655 27.3833 0 27.3833 0C27.3833 0 29.6035 22.069 31.5771 31.4483C33.5507 40.8276 41.9383 52.4138 41.9383 52.4138C41.9383 52.4138 41.1982 50.9163 43.4185 43.0345C45.6388 35.1527 56 20.9655 56 20.9655C56 20.9655 53.2864 30.3448 52.2996 39.4483Z" fill="#456D36"/>
</svg>
