<svg width="57" height="67" viewBox="0 0 57 67" fill="none" xmlns="http://www.w3.org/2000/svg">
<path d="M4.70055 39.4483C5.68734 48.5517 0 66.5 0 66.5C26.482 62.3871 33.9103 63.4864 53.9067 66.4458L54.2731 66.5C54.2731 66.5 55.0265 52.1379 56.0133 45.7931L57.0001 17.931C57.0001 17.931 52.5596 34.7586 47.6257 40.8276C42.6917 46.8966 39.238 48.5517 39.238 48.5517V34.7586C39.238 32.5517 39.238 28.9655 37.5111 17.931C35.7843 6.89655 29.6169 0 29.6169 0C29.6169 0 27.3966 22.069 25.423 31.4483C23.4495 40.8276 15.0618 52.4138 15.0618 52.4138C15.0618 52.4138 15.8019 50.9163 13.5816 43.0345C11.3613 35.1527 1.00011 20.9655 1.00011 20.9655C1.00011 20.9655 3.71377 30.3448 4.70055 39.4483Z" fill="#A8D29D"/>
</svg>
