<svg width="73" height="173" viewBox="0 0 73 173" fill="none" xmlns="http://www.w3.org/2000/svg">
<path d="M73 82.9405C73 132.679 55.6374 173 34.2195 173C14.3944 165.356 2.59785e-06 93.2281 0 43.4896C-2.20621e-06 1.24931 1.02817 0.923288 8.22535 0.0176213C35.9859 -0.888061 73 33.2019 73 82.9405Z" fill="white"/>
<path d="M73 82.9405C73 132.679 55.6374 173 34.2195 173C14.3944 165.356 2.59785e-06 93.2281 0 43.4896C-2.20621e-06 1.24931 1.02817 0.923288 8.22535 0.0176213C35.9859 -0.888061 73 33.2019 73 82.9405Z" fill="url(#paint0_linear_28_6)" fill-opacity="0.3"/>
<path d="M56 87.0781C56 112.992 45.9026 134 33.4469 134C20.9912 134 15.4026 89.9907 12.5048 62.5791C9.77675 36.7719 18.848 37.8981 21.9709 37C34.4266 37 56 61.1638 56 87.0781Z" fill="#FFBEBE"/>
<path d="M56 87.0781C56 112.992 45.9026 134 33.4469 134C20.9912 134 15.4026 89.9907 12.5048 62.5791C9.77675 36.7719 18.848 37.8981 21.9709 37C34.4266 37 56 61.1638 56 87.0781Z" fill="url(#paint1_linear_28_6)" fill-opacity="0.2"/>
<defs>
<linearGradient id="paint0_linear_28_6" x1="36.5" y1="0" x2="36.5" y2="173" gradientUnits="userSpaceOnUse">
<stop stop-color="white"/>
<stop offset="0.769792" stop-color="#90ABC4"/>
</linearGradient>
<linearGradient id="paint1_linear_28_6" x1="34" y1="37" x2="34" y2="134" gradientUnits="userSpaceOnUse">
<stop offset="0.426042" stop-color="white"/>
<stop offset="0.780208" stop-color="#F56363"/>
</linearGradient>
</defs>
</svg>
