<svg width="74" height="172" viewBox="0 0 74 172" fill="none" xmlns="http://www.w3.org/2000/svg">
<path d="M0 82.461C0 131.912 17.6005 172 39.3117 172C59.4085 164.4 74 92.6893 74 43.2382C74 1.24209 72.9577 0.917951 65.662 0.0175194C37.5211 -0.882927 0 33.01 0 82.461Z" fill="white"/>
<path d="M0 82.461C0 131.912 17.6005 172 39.3117 172C59.4085 164.4 74 92.6893 74 43.2382C74 1.24209 72.9577 0.917951 65.662 0.0175194C37.5211 -0.882927 0 33.01 0 82.461Z" fill="url(#paint0_linear_28_5)" fill-opacity="0.3"/>
<path d="M14 88.0781C14 113.992 24.0974 135 36.5531 135C49.0088 135 54.5974 90.9907 57.4952 63.5791C60.2233 37.7719 51.152 38.8981 48.0291 38C35.5734 38 14 62.1638 14 88.0781Z" fill="#FFBEBE"/>
<path d="M14 88.0781C14 113.992 24.0974 135 36.5531 135C49.0088 135 54.5974 90.9907 57.4952 63.5791C60.2233 37.7719 51.152 38.8981 48.0291 38C35.5734 38 14 62.1638 14 88.0781Z" fill="url(#paint1_linear_28_5)" fill-opacity="0.2"/>
<defs>
<linearGradient id="paint0_linear_28_5" x1="48.919" y1="8.23821e-07" x2="48.919" y2="172" gradientUnits="userSpaceOnUse">
<stop stop-color="white"/>
<stop offset="0.769792" stop-color="#90ABC4"/>
</linearGradient>
<linearGradient id="paint1_linear_28_5" x1="36" y1="38" x2="36" y2="135" gradientUnits="userSpaceOnUse">
<stop offset="0.426042" stop-color="white"/>
<stop offset="0.780208" stop-color="#F56363"/>
</linearGradient>
</defs>
</svg>
