<svg width="300" height="300" viewBox="0 0 300 300" fill="none" xmlns="http://www.w3.org/2000/svg">
<path d="M222 205.421C222 250.389 195.871 254 151.883 254C107.894 254 77 250.389 77 205.421C77 160.453 107.894 124 151.883 124C195.871 124 222 160.453 222 205.421Z" fill="white"/>
<path d="M222 205.421C222 250.389 195.871 254 151.883 254C107.894 254 77 250.389 77 205.421C77 160.453 107.894 124 151.883 124C195.871 124 222 160.453 222 205.421Z" fill="url(#paint0_radial_1_2)" fill-opacity="0.35"/>
<path d="M115 103.119C115 143.37 102.632 176 87.3755 176C73.2535 169.814 63 111.445 63 71.1939C63 37.011 63.7324 36.7472 68.8592 36.0143C88.6338 35.2813 115 62.8686 115 103.119Z" fill="white"/>
<path d="M115 103.119C115 143.37 102.632 176 87.3755 176C73.2535 169.814 63 111.445 63 71.1939C63 37.011 63.7324 36.7472 68.8592 36.0143C88.6338 35.2813 115 62.8686 115 103.119Z" fill="url(#paint1_linear_1_2)" fill-opacity="0.3"/>
<path d="M177.625 102.119C177.625 142.37 189.992 175 205.249 175C219.371 168.814 229.625 110.445 229.625 70.1939C229.625 36.011 228.892 35.7472 223.765 35.0143C203.991 34.2813 177.625 61.8686 177.625 102.119Z" fill="white"/>
<path d="M177.625 102.119C177.625 142.37 189.992 175 205.249 175C219.371 168.814 229.625 110.445 229.625 70.1939C229.625 36.011 228.892 35.7472 223.765 35.0143C203.991 34.2813 177.625 61.8686 177.625 102.119Z" fill="url(#paint2_linear_1_2)" fill-opacity="0.3"/>
<path d="M103 105.785C103 126.891 95.886 144 87.1103 144C78.3347 144 74.3973 108.157 72.3557 85.8324C70.4336 64.8142 76.8247 65.7315 79.0249 65C87.8005 65 103 84.6798 103 105.785Z" fill="#FFBEBE"/>
<path d="M103 105.785C103 126.891 95.886 144 87.1103 144C78.3347 144 74.3973 108.157 72.3557 85.8324C70.4336 64.8142 76.8247 65.7315 79.0249 65C87.8005 65 103 84.6798 103 105.785Z" fill="url(#paint3_linear_1_2)" fill-opacity="0.2"/>
<path d="M188 105.785C188 126.891 195.114 144 203.89 144C212.665 144 216.603 108.157 218.644 85.8324C220.566 64.8142 214.175 65.7315 211.975 65C203.199 65 188 84.6798 188 105.785Z" fill="#FFBEBE"/>
<path d="M188 105.785C188 126.891 195.114 144 203.89 144C212.665 144 216.603 108.157 218.644 85.8324C220.566 64.8142 214.175 65.7315 211.975 65C203.199 65 188 84.6798 188 105.785Z" fill="url(#paint4_linear_1_2)" fill-opacity="0.2"/>
<path d="M130 183.212C130 190.357 122.185 188.872 117 188.872C111.815 188.872 104 190.357 104 183.212C104 176.068 111.815 163 117 163C122.185 163 130 176.068 130 183.212Z" fill="#1E1E1E"/>
<path d="M120 169.8C120 171.346 118.657 174 117 174C115.343 174 114 171.346 114 169.8C114 168.254 115.343 167 117 167C118.657 167 120 168.254 120 169.8Z" fill="white"/>
<path d="M197 183.212C197 190.357 189.185 188.872 184 188.872C178.815 188.872 171 190.357 171 183.212C171 176.068 178.815 163 184 163C189.185 163 197 176.068 197 183.212Z" fill="#1E1E1E"/>
<path d="M187 169.8C187 171.346 185.657 174 184 174C182.343 174 181 171.346 181 169.8C181 168.254 182.343 167 184 167C185.657 167 187 168.254 187 169.8Z" fill="white"/>
<path d="M149.745 209.641C149.745 209.641 144.516 219.842 139.497 222.817C136.02 224.878 131.845 224.639 129.607 224.297C128.528 224.133 127.501 223.748 126.556 223.201C124.382 221.941 120.378 219.217 119 215.591" stroke="black" stroke-width="2.5" stroke-linecap="round"/>
<path d="M149.745 209.641C149.745 209.641 154.974 219.842 159.994 222.817C163.47 224.878 167.645 224.639 169.883 224.297C170.963 224.133 171.99 223.748 172.934 223.201C175.108 221.941 179.112 219.217 180.49 215.591" stroke="black" stroke-width="2.5" stroke-linecap="round"/>
<path d="M149.745 211.105C143.786 211.105 138.629 202.286 136.35 197.701C135.718 196.428 136.662 195.002 138.084 195.002L162.354 195C163.827 195 164.77 196.519 164.04 197.798C161.407 202.411 155.661 211.105 149.745 211.105Z" fill="#FFBEBE"/>
<defs>
<radialGradient id="paint0_radial_1_2" cx="0" cy="0" r="1" gradientUnits="userSpaceOnUse" gradientTransform="translate(149.5 189) rotate(90) scale(65 72.5)">
<stop offset="0.504167" stop-color="white"/>
<stop offset="1" stop-color="#758B9F"/>
</radialGradient>
<linearGradient id="paint1_linear_1_2" x1="89" y1="36" x2="89" y2="176" gradientUnits="userSpaceOnUse">
<stop stop-color="white"/>
<stop offset="0.769792" stop-color="#90ABC4"/>
</linearGradient>
<linearGradient id="paint2_linear_1_2" x1="212" y1="35" x2="212" y2="175" gradientUnits="userSpaceOnUse">
<stop stop-color="white"/>
<stop offset="0.769792" stop-color="#90ABC4"/>
</linearGradient>
<linearGradient id="paint3_linear_1_2" x1="87.5" y1="65" x2="87.5" y2="144" gradientUnits="userSpaceOnUse">
<stop offset="0.426042" stop-color="white"/>
<stop offset="0.780208" stop-color="#F56363"/>
</linearGradient>
<linearGradient id="paint4_linear_1_2" x1="203.5" y1="65" x2="203.5" y2="144" gradientUnits="userSpaceOnUse">
<stop offset="0.426042" stop-color="white"/>
<stop offset="0.780208" stop-color="#F56363"/>
</linearGradient>
</defs>
</svg>
